PathFileType	4	(X/Y/Z)	OpenSim_Sub01_EMGBaseline_Accel.trc
DataRate	CameraRate	NumFrames	NumMarkers	Units	OrigDataRate	OrigDataStartFrame	OrigNumFrames
100	100	41	8	m	100	6654	7604
Frame#	Time	torso_imu_offset_imu	pelvis_imu_offset_imu	tibia_r_imu_offset_imu	femur_r_imu_offset_imu	tibia_l_imu_offset_imu	femur_l_imu_offset_imu	toes_r_imu_offset_imu	toes_l_imu_offset_imu
				X1	Y1	Z1	X2	Y2	Z2	X3	Y3	Z3	X4	Y4	Z4	X5	Y5	Z5	X6	Y6	Z6	X7	Y7	Z7	X8		Y8	Z8	

6654	66.53000000	9.69014374	-0.01082285	5.79370244	9.76680756	0.49759022	3.66048709	4.76366417	10.44022667	-2.41421348	11.86567537	-1.43478927	-0.01034430	9.90799376	-1.77903614	-0.95859502	10.68537977	5.80788510	-0.99703331	14.28089350	-6.83944121	19.95825324	5.44378998	0.54489866	11.08622620
6655	66.54000000	9.81623945	-0.02948167	5.82276254	10.12072848	0.37789800	3.50345600	3.27560181	11.77112548	-2.48578560	11.39767273	-0.67539103	0.59411663	9.45411849	-3.91055896	-1.55342011	9.47590498	5.77652373	-0.92472000	15.20216882	-9.58295046	21.99000458	5.45664663	0.63968457	10.95542990
6656	66.55000000	9.95513239	-0.07281684	5.87491882	10.32087449	0.17011581	3.32016775	2.56536770	11.19928057	-1.94206033	11.33091970	0.02205266	0.85188994	9.11675956	-5.36105512	-1.96475130	8.63891106	4.72563432	-0.93253065	10.83952771	-9.44713215	18.65885635	5.40882774	0.76111966	10.89311723
6657	66.56000000	10.04519349	-0.14207005	5.94229711	10.38532643	-0.09132329	3.12869148	2.57166541	8.96171838	-0.79293906	11.54323680	0.40972968	0.76585912	8.97959247	-5.79330304	-2.14518926	8.37378435	2.97233127	-1.01565756	2.84827759	-6.63977647	11.42714867	5.30316864	0.89253434	10.90536443
6658	66.57000000	9.95259440	-0.20316318	5.98087013	10.40190348	-0.30711830	2.94735980	2.85095071	6.44695595	0.54435621	11.62381366	0.46106850	0.61121235	9.04997683	-5.25270660	-1.99104782	8.42626313	1.07162779	-1.17098443	-3.30470290	-3.49079581	5.42151805	5.20481549	0.98896939	10.93427013
6659	66.58000000	9.61726290	-0.23427397	5.95908928	10.41870905	-0.39946311	2.78775213	2.99802691	4.76505099	1.67956160	11.30061184	0.21453237	0.60947821	9.29759828	-3.93386820	-1.47651259	8.58190038	-0.49750641	-1.38952770	-4.04127583	-1.76878758	4.06167178	5.16716140	1.01445796	10.93478170
6660	66.59000000	9.20380600	-0.25269719	5.88524886	10.36050384	-0.35938031	2.64136119	2.75086128	4.11062659	2.33365087	10.73600430	-0.11508020	0.80192647	9.58603030	-2.44547589	-0.81146136	8.77923007	-1.50024266	-1.64474038	-1.68688651	-1.41224057	5.41522933	5.20391355	0.96191548	10.90491572
6661	66.60000000	8.90677993	-0.28177097	5.77602416	10.13669126	-0.19389867	2.49662284	1.91371711	4.48080888	2.27901707	10.16383263	-0.29415813	1.18888350	9.76591335	-1.44020963	-0.24125791	8.98488410	-1.76723260	-1.90481933	0.49139768	-2.00522824	6.68906759	5.31741060	0.83260002	10.85196874
6662	66.61000000	8.74731247	-0.32704524	5.66327264	9.76810226	0.04086221	2.35180134	0.88679040	5.45006285	1.74970817	9.68555603	-0.29541575	1.65671333	9.78792173	-1.08346338	0.10978210	9.16271349	-1.43351034	-2.10790101	1.46885321	-2.89157236	7.01693510	5.44967287	0.67269878	10.80294554
6663	66.62000000	8.61305734	-0.38037801	5.59052802	9.36133840	0.25100653	2.21273100	0.52873414	6.26770392	1.33499053	9.30071892	-0.25036412	2.00410270	9.67975162	-1.16554069	0.21054776	9.27445048	-0.86834960	-2.16901477	1.94680675	-3.23041985	7.01576778	5.49632763	0.56296007	10.80000379
6664	66.63000000	8.43004976	-0.43518274	5.58699971	9.01657517	0.36025431	2.09091603	1.32091359	6.46117112	1.41501175	8.99749900	-0.25075371	2.09544507	9.49174365	-1.49800599	0.06104537	9.31089506	-0.34802546	-2.04687665	2.52438691	-2.53636604	7.17843471	5.40504164	0.55121996	10.86110679
6665	66.64000000	8.24857453	-0.49054136	5.63844097	8.80833757	0.34755703	2.01412961	2.58857090	6.40917876	1.72138823	8.73808858	-0.25805205	1.99707775	9.33563748	-1.98426899	-0.25338048	9.34938180	0.14542918	-1.83178061	3.36511750	-1.39430893	7.51578233	5.28165914	0.58487660	10.93116795
6666	66.65000000	8.13767300	-0.54611827	5.72239140	8.79937657	0.20551839	2.01023965	3.48797311	6.61008950	1.88550724	8.48145325	-0.21055760	1.81175418	9.32495699	-2.54115755	-0.63088262	9.47428085	0.67914498	-1.63328420	4.54096927	-0.54978076	7.94772728	5.25299661	0.59687021	10.94598356
6667	66.66000000	8.10331252	-0.59461211	5.81370727	8.94722932	-0.02177387	2.06352414	3.84534327	6.99757312	1.83314196	8.21016331	-0.06030882	1.62845927	9.43006712	-3.03219273	-0.95876746	9.63584429	1.24188692	-1.48518591	5.95907385	-0.19096932	8.36708542	5.32209259	0.58166015	10.90701774
6668	66.67000000	8.10291547	-0.62336259	5.88518806	9.12845754	-0.25061397	2.12471547	4.00259220	7.07075035	1.71664179	7.92497275	0.23005380	1.52554976	9.51117828	-3.27990361	-1.11603353	9.68113405	1.76211480	-1.36297701	7.39973340	-0.07706117	8.64586560	5.39671863	0.58104927	10.86627394
6669	66.68000000	8.10530303	-0.62397851	5.92128547	9.24192956	-0.41550515	2.15693488	4.25422686	6.52011584	1.63764025	7.64400450	0.66457451	1.54253352	9.49135538	-3.16375339	-1.03675011	9.52650479	2.19446227	-1.25691024	8.72489690	-0.01410769	8.72880924	5.40553245	0.61926330	10.86128011
6670	66.69000000	8.11687743	-0.60116362	5.94123207	9.25898554	-0.50808564	2.16268028	4.71448069	5.63803165	1.52975419	7.43560190	1.14911418	1.60429426	9.48885021	-2.73551389	-0.81925994	9.30209643	2.57594589	-1.20555774	10.04881472	0.01979385	8.77836739	5.34653507	0.66468044	10.88268837
6671	66.70000000	8.15012302	-0.56185044	5.96903532	9.16710133	-0.53144529	2.15212392	5.45849090	4.81564888	1.30315064	7.37060755	1.57347740	1.62101292	9.64438743	-2.08463715	-0.58916906	9.16944789	2.95424028	-1.25267381	11.51429665	0.01431933	8.98210275	5.23318127	0.67810927	10.91283210
6672	66.71000000	8.20456537	-0.51009410	6.00393059	8.99470271	-0.50196494	2.14133669	6.47511185	4.25727616	0.98192322	7.41832887	1.85883631	1.59997203	9.89498357	-1.38770453	-0.42557362	9.16850073	3.30858969	-1.38588153	12.99351368	-0.04711284	9.30104639	5.11832745	0.66159278	10.93925045
6673	66.72000000	8.26975593	-0.44773722	6.02609250	8.80173244	-0.44625424	2.15092113	7.68674042	4.02336920	0.67785072	7.46994930	1.95053216	1.62317467	10.02091384	-0.88832641	-0.37175152	9.24558868	3.56557256	-1.54959541	14.15039571	-0.18589833	9.52189976	5.08512954	0.64890757	10.95349305
6674	66.73000000	8.33707784	-0.37984379	6.02694538	8.64045933	-0.38765754	2.18948682	8.96526297	4.14242375	0.48410580	7.46501716	1.82420690	1.73690819	9.89618830	-0.77436271	-0.45041033	9.34209321	3.66630904	-1.68889233	14.77246580	-0.41966373	9.49967186	5.17519711	0.66306084	10.95138124
6675	66.74000000	8.40411925	-0.32121896	6.03279807	8.53794058	-0.33903488	2.22966081	10.03755764	4.55896457	0.43187227	7.49276466	1.54369124	1.87562200	9.68532331	-1.06289169	-0.62587220	9.39183559	3.59915450	-1.75412008	15.03041129	-0.75446813	9.30566733	5.30437199	0.69263382	10.94112286
6676	66.75000000	8.46979450	-0.28720194	6.07381758	8.51531259	-0.31010671	2.23902193	10.62427809	5.18740091	0.53716536	7.66155295	1.18572213	1.95569277	9.59461036	-1.72477664	-0.84968201	9.33339263	3.36435097	-1.70100635	15.15890439	-1.19544129	9.04713605	5.37257356	0.71945255	10.93260242
6677	66.76000000	8.53569570	-0.27417531	6.14139464	8.57486468	-0.29262001	2.20915579	10.75409587	5.72382446	0.76052111	7.95188028	0.77618522	1.93246620	9.65175831	-2.51182112	-1.04371663	9.19741335	3.00932818	-1.55119704	15.29002605	-1.76580742	8.77081067	5.38940066	0.71950241	10.92652625
6678	66.77000000	8.60547335	-0.26393228	6.19707808	8.70437240	-0.26449165	2.15013114	10.69275956	5.69640842	1.01978347	8.24585039	0.30182214	1.79129805	9.74701908	-3.00731148	-1.10705625	9.08539916	2.61781523	-1.37707171	15.47688264	-2.50269027	8.47681673	5.44884063	0.66430095	10.91653940
6679	66.78000000	8.67896603	-0.24256163	6.21239503	8.88427162	-0.21110700	2.07606612	10.66469450	4.81858682	1.25288462	8.46903947	-0.24972946	1.53373111	9.78882609	-2.94328619	-0.99361837	9.06760046	2.24023171	-1.23858063	15.77099741	-3.40423019	8.13643842	5.59008302	0.56290197	10.90150244
6680	66.79000000	8.74452803	-0.21003127	6.19080324	9.07429817	-0.14110064	2.01169861	10.75341621	3.36711660	1.46071029	8.68371948	-0.88517744	1.20711287	9.75014410	-2.50666951	-0.82200776	9.11599188	1.82524606	-1.15486376	16.22522593	-4.35166893	7.63882259	5.68303962	0.53623673	10.89631312
6681	66.80000000	8.78907580	-0.16871598	6.14168217	9.23104920	-0.06725516	1.98100780	11.00988190	1.73159129	1.64539717	8.97218787	-1.61194476	0.86881204	9.62117630	-1.96670340	-0.73542956	9.18549440	1.31253855	-1.13733167	16.87401055	-5.20025689	6.86908358	5.58124305	0.71244318	10.91629179
6682	66.81000000	8.80978132	-0.11860964	6.07468362	9.32142264	-0.00010287	1.96724206	11.38769608	0.43158529	1.65364351	9.33822509	-2.46379718	0.59942995	9.47154280	-1.56594011	-0.78958928	9.24772744	0.78878601	-1.19463985	17.47259200	-5.73972731	5.87922389	5.36143788	1.01799237	10.93871608
6683	66.82000000	8.81171559	-0.05787662	5.99967253	9.32026676	0.05155858	1.92231968	11.76551963	0.08648284	1.21267015	9.72515729	-3.49474639	0.49742695	9.43194414	-1.52628229	-0.97281101	9.28716337	0.45377339	-1.33331572	17.56151622	-5.70942612	4.84960400	5.27211290	1.22417877	10.91160185
6684	66.83000000	8.80586307	0.01089759	5.93116778	9.23021128	0.08216342	1.82991316	12.01841112	0.98687704	0.28472145	10.05919535	-4.71584386	0.62793782	9.56184370	-1.93129192	-1.23988033	9.28661692	0.44360880	-1.55038116	16.98789779	-4.91095089	3.81415235	5.45361119	1.18721837	10.81355121
6685	66.84000000	8.82017574	0.07185069	5.89750088	9.13582875	0.09561642	1.77044503	12.01645338	2.43875494	-0.46047183	10.22031424	-6.00894061	0.95570794	9.70436050	-2.45504093	-1.45107591	9.22299470	0.69654433	-1.81477564	16.52620627	-3.33472635	2.36187493	5.71180200	1.02752569	10.71628755
6686	66.85000000	8.88361568	0.10791520	5.92662507	9.13026270	0.09846377	1.83524766	11.63571809	3.58807049	-0.29143892	10.09422232	-7.23123336	1.41910860	9.67887600	-2.72005939	-1.45952984	9.07859253	1.11570291	-2.08943455	17.05046227	-1.02854086	0.04696592	5.80526183	0.90461636	10.70397849
6687	66.86000000	8.99331968	0.12072064	6.00262279	9.20821588	0.11057518	2.01124554	10.85565233	3.91004416	0.48989982	9.78032436	-8.22844063	1.83959596	9.54808665	-2.71048011	-1.27288572	8.93268886	1.62592473	-2.32514200	18.35881007	1.62386383	-2.86642528	5.71022263	0.83218951	10.78938239
6688	66.87000000	9.12192492	0.12628501	6.07581839	9.28863165	0.16205351	2.20500258	9.73537354	3.13359514	0.78645250	9.54242202	-8.83745994	1.94870507	9.56190057	-2.68871567	-1.01772118	8.93915663	2.16875382	-2.46334463	19.42140605	3.98023886	-5.56779338	5.57043892	0.71173910	10.93028287
6689	66.88000000	9.24086724	0.13513961	6.11403045	9.31567618	0.25230623	2.33798159	8.45777244	1.29767898	-0.07471953	9.50645727	-8.91481032	1.58229477	9.85195657	-2.81453486	-0.81144833	9.17034640	2.66740999	-2.46726895	19.48414096	5.53840546	-7.45683532	5.49536606	0.50114087	11.07813630
6690	66.89000000	9.31988534	0.14041264	6.13964045	9.31425412	0.28874969	2.38205865	7.56743274	-0.65689140	-1.44543773	9.37616723	-8.37598884	0.89308704	10.18415593	-2.92143816	-0.73515383	9.45066948	2.98938732	-2.36557242	18.67551595	6.23215107	-8.59960844	5.47973768	0.33438091	11.16980011
6691	66.90000000	9.33222753	0.13247142	6.18168099	9.32210468	0.16775156	2.31895775	7.62375661	-1.68475624	-2.46379510	8.81207906	-7.16237824	0.09174148	10.27867465	-2.79309138	-0.85500936	9.57165382	3.00388233	-2.19859074	17.25268504	6.05732003	-9.12309589	5.49619643	0.36826893	11.14701717
6692	66.91000000	9.30835044	0.10851641	6.21776107	9.34565400	-0.12515475	2.13829199	8.40727946	-1.67114188	-2.72464064	7.99616715	-5.43952938	-0.62074055	10.18328668	-2.37008247	-1.11450546	9.51869825	2.75972679	-2.00039137	14.95615730	4.73224499	-8.22247829	5.50420772	0.61392752	11.06501792
6693	66.92000000	9.32273592	0.07100798	6.18593961	9.36723541	-0.53577938	1.83578391	9.09925763	-1.21762647	-2.17450895	7.51166126	-3.54551129	-1.05084786	10.19787058	-1.71384760	-1.36270747	9.42643791	2.44400695	-1.80021534	11.12931117	1.76217693	-4.37657245	5.45311480	0.97032676	11.06634772
6694	66.93000000	9.43259849	0.02214022	6.07088750	9.38460507	-0.98621265	1.45560112	9.25580015	-0.92398211	-0.86704973	7.74539914	-1.76059283	-1.07848848	10.52127788	-0.95438278	-1.46612000	9.42555033	2.20881471	-1.62567871	5.87981709	-2.62679708	2.70738604	5.32079608	1.33046966	11.23212190
